<?xml version="1.0" encoding="UTF-8"?>
<svg width="1059px" height="107px" viewBox="0 0 1059 107" version="1.1" xmlns="http://www.w3.org/2000/svg" xmlns:xlink="http://www.w3.org/1999/xlink">
    <title>textsurflogo</title>
    <g id="Page-1" stroke="none" stroke-width="1" fill="none" fill-rule="evenodd">
        <g id="textsurflogo" fill-rule="nonzero">
            <path d="M68.7491404,77 L68.7491404,7.7 L117.798817,7.7 L117.798817,0 L0,0 L0,7.7 L49.0496762,7.7 L49.0496762,77 L68.7491404,77 Z M192.521378,78 C197.503663,78 202.436126,77.8180617 207.318766,77.454185 C212.201406,77.0903084 217.167084,76.5271659 222.2158,75.7647577 C223.942992,75.4875184 226.533781,75.0543319 229.988166,74.4651982 L229.988166,74.4651982 L229.988166,66.3559471 C217.366375,68.989721 205.774258,70.3066079 195.211812,70.3066079 C184.715797,70.3066079 175.681252,68.9204112 168.108178,66.1480176 C160.535104,63.3756241 156.349984,58.3679883 155.552819,51.1251101 L155.552819,51.1251101 L229.290646,51.1251101 L229.290646,47.8502203 C229.290646,36.8992658 225.304817,29.3531571 217.33316,25.2118943 C209.361503,21.0706314 198.832273,19 185.745469,19 C170.333599,19 157.960923,21.9456681 148.627442,27.8370044 C139.29396,33.7283407 134.627219,40.8152717 134.627219,49.0977974 C134.627219,57.4496329 139.194314,64.3546256 148.328504,69.8127753 C157.462695,75.2709251 172.193653,78 192.521378,78 Z M207.550296,43 L155.662722,43 C156.586928,37.5445135 159.557591,33.3473085 164.57471,30.4083851 C169.591829,27.4694617 175.83022,26 183.289884,26 C190.287445,26 196.080237,27.1966874 200.668261,29.5900621 C205.256284,31.9834369 207.550296,35.9606625 207.550296,41.5217391 L207.550296,41.5217391 L207.550296,43 Z M270.750648,77 L300.985466,55.6003683 L331.815068,77 L356.201183,77 L315.458527,48.6390424 L352.0377,21 L332.707243,21 L305.446341,41.6777164 L275.707176,21 L251.22193,21 L291.072411,48.6906077 L251.023669,77 L270.750648,77 Z M445.52849,78 C454.687158,78 464.177661,77.5469697 474,76.6409091 L474,76.6409091 L474,68.8 C465.969574,69.7757576 457.872781,70.2636364 449.709621,70.2636364 C445.727591,70.2636364 441.845113,70.0458333 438.062185,69.6102273 C434.279257,69.1746212 431.06045,68.3992424 428.405764,67.2840909 C426.746585,66.5871212 425.58516,65.7507576 424.921488,64.775 C424.257816,63.7992424 423.925981,61.5515152 423.925981,58.0318182 L423.925981,58.0318182 L423.925981,28.9681818 L471.809884,28.9681818 L471.809884,21.2318182 L423.925981,21.2318182 L423.925981,9 L404.214935,9 L404.214935,21.2318182 L377.236686,21.2318182 L377.236686,28.9681818 L404.214935,28.9681818 L404.214935,56.3590909 C404.214935,60.5409091 404.779056,63.9996212 405.907298,66.7352273 C407.035539,69.4708333 409.35839,71.7098485 412.875849,73.4522727 C418.848893,76.4840909 429.733107,78 445.52849,78 Z" id="Text" fill="#AAAAAA"></path>
            <path d="M542.583059,78 C561.677993,78 578.124997,75.9884244 591.92407,71.9652733 C605.723143,67.9421222 612.62268,63.1172562 612.62268,57.4906752 C612.62268,53.2051447 605.275606,48.5989282 590.581458,43.6720257 L590.581458,43.6720257 L577.379101,39.2115756 C566.861969,35.7131833 559.943785,33.0456592 556.624549,31.2090032 C553.305312,29.3723473 551.645694,27.3461951 551.645694,25.1305466 C551.645694,21.8362272 554.927636,19.073955 561.491519,16.8437299 C568.055403,14.6135048 576.148373,13.4983923 585.770429,13.4983923 C595.094128,13.4983923 602.590381,14.3438371 608.259189,16.0347267 C613.927998,17.7256163 616.762402,19.9558414 616.762402,22.7254019 C616.762402,23.0752412 616.687813,23.7020364 616.538633,24.6057878 L616.538633,24.6057878 L623.587349,24.6057878 L629.181568,13.629582 C615.233316,11.2098607 603.075213,10 592.707261,10 C576.372142,10 562.312005,11.975134 550.52685,15.9254019 C538.741696,19.8756699 532.849119,24.5766345 532.849119,30.0282958 C532.849119,32.7687031 534.247673,34.9551983 537.044783,36.5877814 C539.841892,38.2203644 547.095729,41.0482315 558.806294,45.0713826 L558.806294,45.0713826 L574.581992,50.5376206 C586.814684,54.7648446 592.93103,58.6276527 592.93103,62.126045 C592.93103,65.6827438 589.686383,68.5907824 583.197089,70.8501608 C576.707795,73.1095391 568.353761,74.2392283 558.134988,74.2392283 C543.44084,74.2392283 529.231524,72.0673098 515.50704,67.7234727 L515.50704,67.7234727 L499.955111,73.933119 C513.754185,76.644373 527.963501,78 542.583059,78 Z M746.224723,78 C759.177929,78 773.80612,74.5491924 790.109294,67.6475771 L790.109294,67.6475771 L792.119274,63.5506608 C777.304975,70.0117474 766.212861,73.2422907 758.842933,73.2422907 C754.450753,73.2422907 752.254664,72.3171806 752.254664,70.4669604 C752.254664,69.4390602 753.110767,67.236417 754.822972,63.8590308 L754.822972,63.8590308 L765.766198,42.0969163 L774.029451,28.5286344 L750.356349,29.0572687 L742.316428,44.8722467 C732.787632,51.9500734 722.3469,58.154185 710.994234,63.4845815 C699.641567,68.814978 691.173594,71.4801762 685.590315,71.4801762 C681.198136,71.4801762 679.002046,70.2907489 679.002046,67.9118943 C679.002046,67.0895742 679.48593,65.7092511 680.453699,63.7709251 L680.453699,63.7709251 L691.396925,42.0969163 C693.183574,38.5726872 694.076899,36.0763583 694.076899,34.6079295 C694.076899,30.2026432 688.679729,28 677.88539,28 C664.85774,28 650.22955,31.4508076 634.000819,38.3524229 L634.000819,38.3524229 L631.990839,42.4052863 C646.879582,35.9735683 657.971696,32.7577093 665.26718,32.7577093 C669.65936,32.7577093 671.855449,33.6681351 671.855449,35.4889868 C671.855449,36.5168869 670.999347,38.7195301 669.287141,42.0969163 L669.287141,42.0969163 L658.45558,63.7268722 C657.264481,66.1057269 656.668931,68.0881057 656.668931,69.6740088 C656.668931,75.2246696 662.624428,78 674.535423,78 C694.635227,78 715.256136,69.6593245 736.398152,52.9779736 L736.398152,52.9779736 L738.296467,52.9779736 L732.713188,63.8590308 C730.926539,67.3538913 730.033214,69.8502203 730.033214,71.3480176 C730.033214,75.7826725 735.430384,78 746.224723,78 Z M810.374906,77 L833.922797,76.4764025 L842.031269,60.5503117 C866.02346,43.8824577 885.239428,35.5485307 899.679172,35.5485307 C902.715221,35.5485307 906.417719,36.1157614 910.786668,37.2502226 L910.786668,37.2502226 L925.559637,29.39626 C921.486889,28.4945088 916.858765,28.0436331 911.675267,28.0436331 C901.678521,28.0436331 890.663588,30.3489166 878.630468,34.9594835 C866.597347,39.5700505 856.174814,45.5114277 847.362867,52.7836153 L847.362867,52.7836153 L845.918893,52.7836153 L851.250491,42.2680321 C852.58339,39.6791333 853.24984,37.3229445 853.24984,35.1994657 C853.24984,30.3998219 847.918242,28 837.255046,28 C824.666551,28 809.819532,31.6215494 792.713988,38.8646483 L792.713988,38.8646483 L790.714639,42.7479964 C805.302483,36.1739389 816.521054,32.8869101 824.370351,32.8869101 C828.813349,32.8869101 831.034848,34.1377263 831.034848,36.6393589 C831.034848,38.2101514 830.479474,40.0718314 829.368724,42.2243989 L829.368724,42.2243989 L818.594453,63.5609973 L810.374906,77 Z M877.846837,106 C899.946853,106 918.326328,102.88751 932.985261,96.662531 C947.644195,90.4375517 957.429219,81.596912 962.340333,70.1406121 L978.636305,32.4400331 L984.44035,32.4400331 C993.964936,32.4400331 1003.45232,32.6592225 1012.90249,33.0976013 L1021.94341,29.1960298 L980.198932,29.1960298 L983.435803,22.9710505 C986.933112,16.0738903 991.397762,11.3320926 996.829753,8.74565757 C1002.26174,6.1592225 1010.55855,4.86600496 1021.72017,4.86600496 C1029.01244,4.86600496 1036.11867,5.71353736 1043.03888,7.40860215 L1059,0.745244003 C1053.4936,0.248414668 1047.50353,0 1041.02978,0 C1020.79004,0 1003.00585,2.65219189 987.677221,7.95657568 C972.34859,13.2609595 962.563566,20.1508133 958.322149,28.6261373 L957.9873,29.1960298 L939.124155,29.1960298 L931.311018,32.4400331 L956.313056,32.4400331 L934.882738,82.2837055 C932.055126,88.8301627 928.064678,91.3892329 922.297839,94.2240827 C916.531,97.0589324 910.030383,98.898263 899.389635,98.898263 C891.948552,98.898263 883.279894,98.898263 875.502896,98.898263 C455.656993,94.434885 220.260419,92.203196 169.313172,92.203196 C120.967471,92.203196 24.0020531,95.4547871 12.0904679,98.898263 C6.40805356,100.540971 3.04456427,102.908217 2,106 C8.39933128,106.379928 872.042793,106 877.846837,106 Z" id="Surf" fill="#497DB3"></path>
        </g>
    </g>
</svg>